<svg xmlns="http://www.w3.org/2000/svg" viewBox="0 0 1524.53 997.42"><defs><style>.cls-1{isolation:isolate;}.cls-2,.cls-4,.cls-7{fill:#1d1d1b;}.cls-3{fill:none;}.cls-4{mix-blend-mode:multiply;}.cls-5,.cls-8{fill:#e30613;}.cls-6{fill:#181614;}.cls-7{stroke:#1d1d1b;}.cls-8{stroke:#e30613;stroke-width:6px;}</style></defs><title>Gezinnetje</title><g class="cls-1"><g id="Laag_1" data-name="Laag 1"><path class="cls-2" d="M282.86,311.26a19.93,19.93,0,0,0-18.64-12.83v0H157.83a19.94,19.94,0,1,0,0,39.89V472.62a25.28,25.28,0,0,0,25.28,25.28h55.84a25.28,25.28,0,0,0,25.28-25.28V338.3a19.91,19.91,0,0,0,18.64-27Z" transform="translate(141.4 -41.88)"/><circle class="cls-3" cx="1025.83" cy="498.71" r="498.71"/><circle class="cls-3" cx="352.42" cy="429.42" r="53.19"/><path class="cls-2" d="M142.67,748.91H211V727.24a17.42,17.42,0,0,0-24.82-15.81h0l-22.56,8.19A31.84,31.84,0,0,0,142.67,748.91Z" transform="translate(141.4 -41.88)"/><path class="cls-3" d="M254.24,727.24a60.68,60.68,0,1,0-60.68,60.67A60.69,60.69,0,0,0,254.24,727.24Z" transform="translate(141.4 -41.88)"/><path class="cls-2" d="M167,601.08l0-.36c0-.54-.05-1.08-.05-1.63a25.36,25.36,0,0,1,50.72,0c0,.37,0,.73,0,1.1v.11c0,.08,0,.15,0,.23L211,728a17.45,17.45,0,0,1-34.84.62v-.09Z" transform="translate(141.4 -41.88)"/><path class="cls-3" d="M1.14,599.08c0-105.55,85.58-191.16,191.17-191.16s191.17,85.61,191.17,191.16S297.92,790.26,192.32,790.26,1.14,704.66,1.14,599.08Z" transform="translate(141.4 -41.88)"/><path class="cls-2" d="M157.91,473.71q-.09-1.19-.09-2.41a33.25,33.25,0,1,1,66.49,0q0,1-.06,2l-6.6,126.88a25.36,25.36,0,0,1-50.65.53l-9.08-126.86Z" transform="translate(141.4 -41.88)"/><path class="cls-3" d="M191.06,803.77C7.37,803.77-141.4,655-141.4,471.29S7.37,138.82,191.06,138.82,523.54,287.59,523.54,471.29,374.76,803.77,191.06,803.77Z" transform="translate(141.4 -41.88)"/><path class="cls-2" d="M258.4,719.62l-22.56-8.19h0A17.42,17.42,0,0,0,211,727.24v21.68h68.35A31.84,31.84,0,0,0,258.4,719.62Z" transform="translate(141.4 -41.88)"/><path class="cls-3" d="M167.8,727.24a60.68,60.68,0,1,1,60.68,60.67A60.69,60.69,0,0,1,167.8,727.24Z" transform="translate(141.4 -41.88)"/><path class="cls-2" d="M255,601.08s0-.36,0-.36c0-.54.06-1.08.06-1.63a25.36,25.36,0,0,0-50.73,0c0,.37,0,.73,0,1.1v.11c0,.08,0,.15,0,.23L211,728a17.45,17.45,0,0,0,34.84.62v0s0,0,0-.06Z" transform="translate(141.4 -41.88)"/><path class="cls-3" d="M420.89,599.08c0-105.55-85.58-191.16-191.17-191.16S38.55,493.53,38.55,599.08s85.57,191.18,191.17,191.18S420.89,704.66,420.89,599.08Z" transform="translate(141.4 -41.88)"/><path class="cls-2" d="M264.13,473.71q.08-1.19.08-2.41a33.25,33.25,0,1,0-66.49,0q0,1,.06,2l6.6,126.88a25.36,25.36,0,0,0,50.65.53l9.08-126.86Z" transform="translate(141.4 -41.88)"/><path class="cls-3" d="M231,803.77c183.69,0,332.45-148.75,332.45-332.48S414.67,138.82,231,138.82-101.51,287.59-101.51,471.29,47.28,803.77,231,803.77Z" transform="translate(141.4 -41.88)"/><path class="cls-2" d="M264.21,471.3h0a53.19,53.19,0,0,0-106.38,0H264.21Z" transform="translate(141.4 -41.88)"/><path id="hand_L" data-name="hand L" class="cls-2" d="M105,535.27a28.53,28.53,0,0,1-23.81-31.91l1.93-14.06c0-.14,0-.28.06-.41a15,15,0,0,1,29.55,4.69c0,.13,0,.27-.07.4Z" transform="translate(141.4 -41.88)"/><circle id="draaipunt_hand_L" data-name="draaipunt hand L" class="cls-3" cx="98.01" cy="491.23" r="54.03" transform="translate(-261.12 469.15) rotate(-80.98)"/><path id="onderarm_L" data-name="onderarm L" class="cls-2" d="M95.66,506a15,15,0,0,1-12.48-16.78L95.29,397c0-.15,0-.3.07-.45A17.46,17.46,0,0,1,129.85,402c0,.15-.05.3-.08.45l-17,91.48A15,15,0,0,1,95.66,506Z" transform="translate(141.4 -41.88)"/><path id="draaipunt_onderarm_L" data-name="draaipunt onderarm L" class="cls-3" d="M259.55,422.57A148.78,148.78,0,1,0,89.29,546.19,148.75,148.75,0,0,0,259.55,422.57Z" transform="translate(141.4 -41.88)"/><path id="bovenarm_L" data-name="bovenarm L" class="cls-2" d="M104.08,414.49a17.46,17.46,0,0,1-6.94-23.36l43-82,.28-.52a19.95,19.95,0,0,1,34.82,19.47l-.29.51-47.32,79.56A17.46,17.46,0,0,1,104.08,414.49Z" transform="translate(141.4 -41.88)"/><path id="draaipunt_bovenarm_L" data-name="draaipunt bovenarm L" class="cls-3" d="M370.4,437.21c65.65-117.43,23.72-265.75-93.73-331.41S10.91,82.09-54.74,199.53-78.45,465.28,39,530.94,304.75,554.64,370.4,437.21Z" transform="translate(141.4 -41.88)"/><path id="hand_L-2" data-name="hand L" class="cls-2" d="M188.2,457.66a28.53,28.53,0,0,0,38.61,9.72l12.24-7.18.36-.21a15,15,0,0,0-15.68-25.48l-.34.22Z" transform="translate(141.4 -41.88)"/><circle id="draaipunt_hand_L-2" data-name="draaipunt hand L" class="cls-3" cx="231.57" cy="447.24" r="54.03" transform="translate(-58.66 145.85) rotate(-31.61)"/><path id="onderarm_L-2" data-name="onderarm L" class="cls-2" d="M218.83,455.08a15,15,0,0,0,20.29,5.08l80.53-46.63.39-.24a17.46,17.46,0,0,0-18.3-29.74l-.39.25-77.91,50.88A15,15,0,0,0,218.83,455.08Z" transform="translate(141.4 -41.88)"/><path id="draaipunt_onderarm_L-2" data-name="draaipunt onderarm L" class="cls-3" d="M232.9,271.71a148.78,148.78,0,1,1-48.73,204.7A148.74,148.74,0,0,1,232.9,271.71Z" transform="translate(141.4 -41.88)"/><path id="bovenarm_L-2" data-name="bovenarm L" class="cls-2" d="M319.67,413.51A17.46,17.46,0,0,0,326.19,390h0l-44.45-81.2-.29-.51A19.95,19.95,0,0,0,247,328.41l.3.5L296,407.61h0A17.46,17.46,0,0,0,319.67,413.51Z" transform="translate(141.4 -41.88)"/><path id="draaipunt_bovenarm_L-2" data-name="draaipunt bovenarm L" class="cls-3" d="M53.81,441c-67.74-116.23-28.48-265.28,87.78-333s265.3-28.45,333,87.78,28.47,265.29-87.78,333S121.56,557.24,53.81,441Z" transform="translate(141.4 -41.88)"/><circle class="cls-4" cx="352.42" cy="198.86" r="46.57"/><path class="cls-3" d="M63.07,338.31A147.95,147.95,0,1,1,211,486.26,147.95,147.95,0,0,1,63.07,338.31Z" transform="translate(141.4 -41.88)"/><path id="draaipunt_voet_L" data-name="draaipunt voet L" class="cls-3" d="M229.46,446.47a35.92,35.92,0,1,0-46.38-20.72A35.93,35.93,0,0,0,229.46,446.47Z" transform="translate(141.4 -41.88)"/><path id="voet_L" data-name="voet L" class="cls-2" d="M198.33,394,210,424.37l9.64-3.69a8.3,8.3,0,0,0,2.81-13.73h0l-7.48-8.64A15.16,15.16,0,0,0,198.33,394Z" transform="translate(141.4 -41.88)"/><path class="cls-2" d="M248.93,385.73a14.28,14.28,0,0,1,1.79-.83A14,14,0,0,1,268.79,393h0a14,14,0,0,1-10,18.64L218.63,421a8.31,8.31,0,0,1-5.9-15.41Z" transform="translate(141.4 -41.88)"/><path id="draaipunt_onderbeen_L" data-name="draaipunt onderbeen L" class="cls-3" d="M287.51,481.11a89,89,0,1,0-114.93-51.35A89,89,0,0,0,287.51,481.11Z" transform="translate(141.4 -41.88)"/><path class="cls-2" d="M289.92,363.37a20.11,20.11,0,1,1,11.61,38.39l-42.59,9.83A14,14,0,0,1,249,385.68l38.28-21.09A20.13,20.13,0,0,1,289.92,363.37Z" transform="translate(141.4 -41.88)"/><path id="draaipunt_romp" data-name="draaipunt romp" class="cls-3" d="M345.59,509a135.77,135.77,0,1,0-175.31-78.34A135.77,135.77,0,0,0,345.59,509Z" transform="translate(141.4 -41.88)"/><path id="draaipunt_voet_L-2" data-name="draaipunt voet L" class="cls-3" d="M229.46,446.47a35.92,35.92,0,1,0-46.38-20.72A35.93,35.93,0,0,0,229.46,446.47Z" transform="translate(141.4 -41.88)"/><path id="voet_L-2" data-name="voet L" class="cls-5" d="M198.33,394,210,424.37l9.64-3.69A8.3,8.3,0,0,0,222.41,407h0l-7.48-8.64A15.16,15.16,0,0,0,198.33,394Z" transform="translate(141.4 -41.88)"/><path class="cls-5" d="M248.93,385.73a14.28,14.28,0,0,1,1.79-.83A14,14,0,0,1,268.79,393h0a14,14,0,0,1-10,18.64L218.64,421a8.31,8.31,0,0,1-5.9-15.41Z" transform="translate(141.4 -41.88)"/><path id="draaipunt_onderbeen_L-2" data-name="draaipunt onderbeen L" class="cls-3" d="M287.51,481.11a89,89,0,1,0-114.93-51.34A89,89,0,0,0,287.51,481.11Z" transform="translate(141.4 -41.88)"/><path class="cls-5" d="M289.91,363.37a20.11,20.11,0,1,1,11.61,38.39l-42.59,9.83A14,14,0,0,1,249,385.68l38.28-21.1A20.13,20.13,0,0,1,289.91,363.37Z" transform="translate(141.4 -41.88)"/><path id="draaipunt_romp-2" data-name="draaipunt romp" class="cls-3" d="M345.6,509a135.77,135.77,0,1,0-175.32-78.32A135.77,135.77,0,0,0,345.6,509Z" transform="translate(141.4 -41.88)"/><path id="hand_L-3" data-name="hand L" class="cls-2" d="M224.47,334.65a13.58,13.58,0,0,1,13.23-13.58l6.76-.14h.2a7.13,7.13,0,0,1,0,14.25h-.19Z" transform="translate(141.4 -41.88)"/><path id="draaipunt_hand_L-3" data-name="draaipunt hand L" class="cls-3" d="M269.45,328.05a24.79,24.79,0,1,0-24.78,24.78A24.78,24.78,0,0,0,269.45,328.05Z" transform="translate(141.4 -41.88)"/><path class="cls-2" d="M272,318.69a9.37,9.37,0,0,1,0,18.73l-.73,0-27.14-2.23a7.12,7.12,0,0,1,0-14.22l27.14-2.23Z" transform="translate(141.4 -41.88)"/><path id="draaipunt_onderarm_L-3" data-name="draaipunt onderarm L" class="cls-3" d="M272,382.51A54.45,54.45,0,1,0,217.59,328,54.43,54.43,0,0,0,272,382.51Z" transform="translate(141.4 -41.88)"/><path class="cls-2" d="M297.1,316.57a11.49,11.49,0,1,1,0,23c-.33,0-.66,0-1,0l-24.8-2.11a9.37,9.37,0,0,1,0-18.68l24.8-2.11C296.44,316.58,296.77,316.57,297.1,316.57Z" transform="translate(141.4 -41.88)"/><path id="draaipunt_bovenarm_L-3" data-name="draaipunt bovenarm L" class="cls-3" d="M297.09,408.42a80.36,80.36,0,1,0-80.36-80.37A80.34,80.34,0,0,0,297.09,408.42Z" transform="translate(141.4 -41.88)"/><path id="draaipunt_hoofd" data-name="draaipunt hoofd" class="cls-3" d="M398.5,336.67A101.41,101.41,0,1,0,297.09,438.08,101.42,101.42,0,0,0,398.5,336.67Z" transform="translate(141.4 -41.88)"/><path id="hand_L-4" data-name="hand L" class="cls-2" d="M224.47,334.65a13.58,13.58,0,0,1,13.23-13.58l6.76-.14h.2a7.13,7.13,0,0,1,0,14.25h-.19Z" transform="translate(141.4 -41.88)"/><path id="draaipunt_hand_L-4" data-name="draaipunt hand L" class="cls-3" d="M269.45,328.05a24.79,24.79,0,1,0-24.78,24.78A24.78,24.78,0,0,0,269.45,328.05Z" transform="translate(141.4 -41.88)"/><path class="cls-2" d="M272,318.69a9.37,9.37,0,0,1,0,18.73l-.73,0-27.14-2.23a7.12,7.12,0,0,1,0-14.22l27.14-2.23Z" transform="translate(141.4 -41.88)"/><path id="draaipunt_onderarm_L-4" data-name="draaipunt onderarm L" class="cls-3" d="M272,382.51A54.45,54.45,0,1,0,217.59,328,54.43,54.43,0,0,0,272,382.51Z" transform="translate(141.4 -41.88)"/><path class="cls-2" d="M297.1,316.57a11.49,11.49,0,1,1,0,23c-.33,0-.66,0-1,0l-24.8-2.11a9.37,9.37,0,0,1,0-18.68l24.8-2.11C296.44,316.58,296.77,316.57,297.1,316.57Z" transform="translate(141.4 -41.88)"/><path id="draaipunt_bovenarm_L-4" data-name="draaipunt bovenarm L" class="cls-3" d="M297.09,408.42a80.36,80.36,0,1,0-80.36-80.37A80.34,80.34,0,0,0,297.09,408.42Z" transform="translate(141.4 -41.88)"/><path id="draaipunt_hoofd-2" data-name="draaipunt hoofd" class="cls-3" d="M398.5,336.67A101.41,101.41,0,1,0,297.09,438.08,101.42,101.42,0,0,0,398.5,336.67Z" transform="translate(141.4 -41.88)"/><circle id="hoofd" class="cls-2" cx="438.49" cy="240.85" r="29.43"/><path id="draaipunt_hoofd-3" data-name="draaipunt hoofd" class="cls-3" d="M383.37,336.67a86.27,86.27,0,1,0-86.28,86.28A86.28,86.28,0,0,0,383.37,336.67Z" transform="translate(141.4 -41.88)"/><path class="cls-2" d="M272.1,379.34l5-45a20.11,20.11,0,0,1,39.95,0l5,44.87v.1a25.46,25.46,0,0,1,.15,2.81,25.15,25.15,0,1,1-50.3,0A25.46,25.46,0,0,1,272.1,379.34Z" transform="translate(141.4 -41.88)"/><path class="cls-3" d="M445.69,382.14A148.59,148.59,0,1,0,297.1,530.74,148.59,148.59,0,0,0,445.69,382.14Z" transform="translate(141.4 -41.88)"/><path class="cls-5" d="M274.62,356.74h44.95l2.51,22.49v.1a25.46,25.46,0,0,1,.15,2.81,25.15,25.15,0,1,1-50.3,0,25.46,25.46,0,0,1,.16-2.81Z" transform="translate(141.4 -41.88)"/><path class="cls-2" d="M537.15,347.87a18.59,18.59,0,0,1,17.38-12v0h99.21a18.6,18.6,0,1,1,0,37.19V498.33a23.57,23.57,0,0,1-23.57,23.57H578.1a23.57,23.57,0,0,1-23.57-23.57V373.08a18.57,18.57,0,0,1-17.38-25.21Z" transform="translate(141.4 -41.88)"/><circle class="cls-3" cx="745.54" cy="455.22" r="49.6"/><path class="cls-2" d="M648.32,728.65l-21-7.64h0a16.25,16.25,0,0,0-23.14,14.74V756h63.73A29.69,29.69,0,0,0,648.32,728.65Z" transform="translate(141.4 -41.88)"/><path class="cls-3" d="M563.84,735.76a56.58,56.58,0,1,1,56.58,56.58A56.59,56.59,0,0,1,563.84,735.76Z" transform="translate(141.4 -41.88)"/><path class="cls-2" d="M645.15,618.12l0-.34c0-.5,0-1,0-1.52a23.65,23.65,0,0,0-47.3,0c0,.34,0,.68,0,1v.1c0,.07,0,.14,0,.21l6.19,118.88a16.28,16.28,0,0,0,32.48.58V737Z" transform="translate(141.4 -41.88)"/><path class="cls-3" d="M799.84,616.25A178.26,178.26,0,1,0,621.58,794.53,178.26,178.26,0,0,0,799.84,616.25Z" transform="translate(141.4 -41.88)"/><path class="cls-2" d="M653.66,499.35q.08-1.11.08-2.24a31,31,0,1,0-62,0q0,.95.06,1.88l6.16,118.31a23.65,23.65,0,0,0,47.23.5l8.47-118.3Z" transform="translate(141.4 -41.88)"/><path class="cls-3" d="M622.75,807.13c171.28,0,310-138.71,310-310s-138.72-310-310-310-310,138.72-310,310S451.45,807.13,622.75,807.13Z" transform="translate(141.4 -41.88)"/><path class="cls-2" d="M540.41,756h63.73V735.76A16.25,16.25,0,0,0,581,721h0l-21,7.64A29.69,29.69,0,0,0,540.41,756Z" transform="translate(141.4 -41.88)"/><path class="cls-3" d="M644.44,735.76a56.58,56.58,0,1,0-56.58,56.58A56.59,56.59,0,0,0,644.44,735.76Z" transform="translate(141.4 -41.88)"/><path class="cls-2" d="M563.12,618.12s0-.34,0-.34c0-.5-.05-1-.05-1.52a23.65,23.65,0,0,1,47.3,0c0,.34,0,.68,0,1v.1c0,.07,0,.14,0,.21l-6.19,118.88a16.28,16.28,0,0,1-32.48.58v0s0,0,0-.06Z" transform="translate(141.4 -41.88)"/><path class="cls-3" d="M408.44,616.25A178.26,178.26,0,1,1,586.7,794.53,178.26,178.26,0,0,1,408.44,616.25Z" transform="translate(141.4 -41.88)"/><path class="cls-2" d="M554.62,499.35q-.08-1.11-.08-2.24a31,31,0,1,1,62,0q0,.95-.06,1.88l-6.16,118.31a23.65,23.65,0,0,1-47.23.5l-8.47-118.3Z" transform="translate(141.4 -41.88)"/><path class="cls-3" d="M585.52,807.13c-171.28,0-310-138.71-310-310s138.72-310,310-310,310,138.72,310,310S756.82,807.13,585.52,807.13Z" transform="translate(141.4 -41.88)"/><path class="cls-2" d="M554.54,497.1h0a49.6,49.6,0,0,1,99.2,0h-99.2Z" transform="translate(141.4 -41.88)"/><path class="cls-5" d="M554.53,447.5h99.21l23.78,194.27c-28.28,7.35-116.82,8.73-146.78,0Z" transform="translate(141.4 -41.88)"/><path id="hand_L-5" data-name="hand L" class="cls-2" d="M688.42,563.82a26.6,26.6,0,0,0,11.06-35.44l-6.05-11.77-.18-.34a14,14,0,0,0-24.54,13.28l.18.33Z" transform="translate(141.4 -41.88)"/><circle id="draaipunt_hand_L-5" data-name="draaipunt hand L" class="cls-3" cx="680.98" cy="522.9" r="50.38" transform="translate(-25.38 345.13) rotate(-28.41)"/><path id="onderarm_L-3" data-name="onderarm L" class="cls-2" d="M681,536.95A14,14,0,0,0,695,523.46l3.21-86.71c0-.14,0-.29,0-.43a16.28,16.28,0,0,0-32.56-.33c0,.14,0,.29,0,.43l1.45,86.75A14,14,0,0,0,681,536.95Z" transform="translate(141.4 -41.88)"/><path id="draaipunt_onderarm_L-5" data-name="draaipunt onderarm L" class="cls-3" d="M543.25,434.75A138.73,138.73,0,1,1,680.57,574.89,138.71,138.71,0,0,1,543.25,434.75Z" transform="translate(141.4 -41.88)"/><path id="bovenarm_L-3" data-name="bovenarm L" class="cls-2" d="M687.31,451.55a16.28,16.28,0,0,0,10.2-20.3l-26-82.3-.17-.52a18.6,18.6,0,0,0-35.16,12.16l.19.51,30.39,80.79A16.28,16.28,0,0,0,687.31,451.55Z" transform="translate(141.4 -41.88)"/><path id="draaipunt_bovenarm_L-5" data-name="draaipunt bovenarm L" class="cls-3" d="M439.12,428.73c-41-118.56,21.81-247.83,140.39-288.84s247.84,21.82,288.84,140.39S846.54,528.11,728,569.12,480.13,547.29,439.12,428.73Z" transform="translate(141.4 -41.88)"/><path id="hand_L-6" data-name="hand L" class="cls-2" d="M432.39,529.21a26.6,26.6,0,0,1-4.72-36.82l8-10.54.24-.31a14,14,0,0,1,21.86,17.34l-.24.29Z" transform="translate(141.4 -41.88)"/><circle id="draaipunt_hand_L-6" data-name="draaipunt hand L" class="cls-3" cx="446.84" cy="490.21" r="50.38" transform="matrix(0.62, -0.78, 0.78, 0.62, -73.51, 493.64)"/><path id="onderarm_L-4" data-name="onderarm L" class="cls-2" d="M438.16,501.14a14,14,0,0,1-2.45-19.35L487.8,412.4l.26-.34a16.28,16.28,0,0,1,25.51,20.24l-.27.33-55.74,66.5A14,14,0,0,1,438.16,501.14Z" transform="translate(141.4 -41.88)"/><path id="draaipunt_onderarm_L-6" data-name="draaipunt onderarm L" class="cls-3" d="M609.5,508.41a138.74,138.74,0,1,0-194.92,22.45A138.7,138.7,0,0,0,609.5,508.41Z" transform="translate(141.4 -41.88)"/><path id="bovenarm_L-4" data-name="bovenarm L" class="cls-2" d="M490.7,434.93a16.28,16.28,0,0,1-2.89-22.54h0l51.82-69,.33-.43a18.6,18.6,0,0,1,29.14,23.12l-.35.42L513.3,432.63h0A16.28,16.28,0,0,1,490.7,434.93Z" transform="translate(141.4 -41.88)"/><path id="draaipunt_bovenarm_L-6" data-name="draaipunt bovenarm L" class="cls-3" d="M732.42,495.65c78-98.27,61.56-241.05-36.73-319s-241.07-61.54-319,36.73-61.55,241.06,36.73,319S654.43,593.94,732.42,495.65Z" transform="translate(141.4 -41.88)"/><path class="cls-3" d="M759.92,373.09A155.79,155.79,0,1,0,604.14,528.88,155.77,155.77,0,0,0,759.92,373.09Z" transform="translate(141.4 -41.88)"/><circle class="cls-4" cx="745.53" cy="240.23" r="43.42"/><path class="cls-2" d="M383.6,530.55a10.46,10.46,0,0,0-9.79-6.74H318a10.47,10.47,0,1,0,0,20.94v70.51a13.27,13.27,0,0,0,13.27,13.27h29.31a13.27,13.27,0,0,0,13.27-13.27V544.74a10.45,10.45,0,0,0,9.79-14.19Z" transform="translate(141.4 -41.88)"/><circle class="cls-3" cx="487.29" cy="572.68" r="261.8"/><circle class="cls-3" cx="487.29" cy="572.68" r="27.92"/><path class="cls-2" d="M310,760.29h35.88V748.91a9.15,9.15,0,0,0-13-8.3h0L321,744.92A16.71,16.71,0,0,0,310,760.29Z" transform="translate(141.4 -41.88)"/><path class="cls-3" d="M368.58,748.91a31.85,31.85,0,1,0-31.85,31.85A31.86,31.86,0,0,0,368.58,748.91Z" transform="translate(141.4 -41.88)"/><path class="cls-2" d="M322.8,682.69v-.19c0-.28,0-.57,0-.86a13.31,13.31,0,0,1,26.63,0c0,.19,0,.39,0,.58v.17l-3.48,66.93a9.16,9.16,0,0,1-18.29.33v0Z" transform="translate(141.4 -41.88)"/><path class="cls-3" d="M235.71,681.64A100.36,100.36,0,1,1,336.07,782,100.36,100.36,0,0,1,235.71,681.64Z" transform="translate(141.4 -41.88)"/><path class="cls-2" d="M318,615.82q0-.63,0-1.26a17.45,17.45,0,1,1,34.91,0q0,.53,0,1.06l-3.47,66.6a13.31,13.31,0,0,1-26.59.28L318,615.9Z" transform="translate(141.4 -41.88)"/><path class="cls-3" d="M335.41,789.09A174.53,174.53,0,1,1,509.95,614.56,174.47,174.47,0,0,1,335.41,789.09Z" transform="translate(141.4 -41.88)"/><path class="cls-2" d="M370.76,744.92l-11.84-4.3h0a9.15,9.15,0,0,0-13,8.3v11.38h35.88A16.71,16.71,0,0,0,370.76,744.92Z" transform="translate(141.4 -41.88)"/><path class="cls-3" d="M323.2,748.91a31.85,31.85,0,1,1,31.85,31.85A31.86,31.86,0,0,1,323.2,748.91Z" transform="translate(141.4 -41.88)"/><path class="cls-2" d="M369,682.69v-.19c0-.28,0-.57,0-.86a13.31,13.31,0,0,0-26.63,0c0,.19,0,.39,0,.58v.17l3.48,66.93a9.16,9.16,0,0,0,18.29.33v0Z" transform="translate(141.4 -41.88)"/><path class="cls-3" d="M456.06,681.64A100.36,100.36,0,1,0,355.71,782,100.36,100.36,0,0,0,456.06,681.64Z" transform="translate(141.4 -41.88)"/><path class="cls-2" d="M373.77,615.82q0-.63,0-1.26a17.45,17.45,0,1,0-34.91,0q0,.53,0,1.06l3.47,66.6a13.31,13.31,0,0,0,26.59.28l4.77-66.6Z" transform="translate(141.4 -41.88)"/><path class="cls-3" d="M356.37,789.09A174.53,174.53,0,1,0,181.83,614.56,174.47,174.47,0,0,0,356.37,789.09Z" transform="translate(141.4 -41.88)"/><path class="cls-2" d="M373.81,614.56h0a27.92,27.92,0,0,0-55.85,0h55.85Z" transform="translate(141.4 -41.88)"/><path id="hand_L-7" data-name="hand L" class="cls-2" d="M290.26,648.14a15,15,0,0,1-12.5-16.75l1-7.38,0-.22a7.85,7.85,0,0,1,15.51,2.46l0,.21Z" transform="translate(141.4 -41.88)"/><circle id="draaipunt_hand_L-7" data-name="draaipunt hand L" class="cls-3" cx="286.56" cy="625.02" r="28.36" transform="translate(-234.26 768.19) rotate(-80.98)"/><path id="onderarm_L-5" data-name="onderarm L" class="cls-2" d="M285.33,632.78a7.85,7.85,0,0,1-6.55-8.81l6.36-48.43,0-.24a9.17,9.17,0,0,1,18.11,2.87l0,.24-8.95,48A7.85,7.85,0,0,1,285.33,632.78Z" transform="translate(141.4 -41.88)"/><path id="draaipunt_onderarm_L-7" data-name="draaipunt onderarm L" class="cls-3" d="M371.36,589A78.1,78.1,0,1,0,282,653.88,78.09,78.09,0,0,0,371.36,589Z" transform="translate(141.4 -41.88)"/><path id="bovenarm_L-5" data-name="bovenarm L" class="cls-2" d="M289.75,584.74a9.16,9.16,0,0,1-3.64-12.26l22.57-43,.15-.27a10.47,10.47,0,0,1,18.28,10.22l-.15.27L302.1,581.42A9.16,9.16,0,0,1,289.75,584.74Z" transform="translate(141.4 -41.88)"/><path id="draaipunt_bovenarm_L-7" data-name="draaipunt bovenarm L" class="cls-3" d="M429.56,596.66a127.84,127.84,0,1,0-174,49.2A127.81,127.81,0,0,0,429.56,596.66Z" transform="translate(141.4 -41.88)"/><path id="hand_L-8" data-name="hand L" class="cls-2" d="M471.81,465a15,15,0,0,0-20.88-.9l-5.53,5-.16.15A7.85,7.85,0,0,0,456,480.64l.15-.15Z" transform="translate(141.4 -41.88)"/><circle id="draaipunt_hand_L-8" data-name="draaipunt hand L" class="cls-3" cx="450.62" cy="474.92" r="28.36" transform="translate(-61.63 396.26) rotate(-43.28)"/><path id="onderarm_L-6" data-name="onderarm L" class="cls-2" d="M456.34,469.54a7.85,7.85,0,0,0-11-.45l-36.45,32.52-.18.16a9.17,9.17,0,0,0,12.57,13.35l.17-.17,34.65-34.43A7.85,7.85,0,0,0,456.34,469.54Z" transform="translate(141.4 -41.88)"/><path id="draaipunt_onderarm_L-8" data-name="draaipunt onderarm L" class="cls-3" d="M468.58,565.3a78.1,78.1,0,1,1,3.31-110.41A78.08,78.08,0,0,1,468.58,565.3Z" transform="translate(141.4 -41.88)"/><path id="bovenarm_L-6" data-name="bovenarm L" class="cls-2" d="M422.8,503.58a9.16,9.16,0,0,0-12.43-3h0l-41.85,24.69-.26.16a10.47,10.47,0,0,0,11.12,17.75l.26-.17,40.47-26.9h0A9.16,9.16,0,0,0,422.8,503.58Z" transform="translate(141.4 -41.88)"/><path id="draaipunt_bovenarm_L-8" data-name="draaipunt bovenarm L" class="cls-3" d="M441.71,642.61a127.84,127.84,0,1,1,40.43-176.22A127.81,127.81,0,0,1,441.71,642.61Z" transform="translate(141.4 -41.88)"/><path class="cls-6" d="M873.25,510.92c-2.12-5.55.61-9.57-5-9.58H794a13.91,13.91,0,1,0,0,27.83V584.5a17.64,17.64,0,0,0,17.64,17.63h39a17.64,17.64,0,0,0,17.64-17.63V529.16c1.65,0-1.07-8.75.56-9.37,7.18-2.74,7.17-1.68,4.43-8.86" transform="translate(141.4 -41.88)"/><path class="cls-6" d="M783.46,753.33h47.68V738.2a12.16,12.16,0,0,0-17.32-11h0l-15.74,5.71a22.21,22.21,0,0,0-14.62,20.44" transform="translate(141.4 -41.88)"/><path class="cls-6" d="M800.45,669.52l0-.25c0-.38,0-.75,0-1.14a17.7,17.7,0,0,1,35.39,0c0,.26,0,.51,0,.77V669c0,.05,0,.11,0,.16l-4.63,69.62a12.18,12.18,0,0,1-24.3.43v-.07Z" transform="translate(141.4 -41.88)"/><path class="cls-6" d="M794.09,585.26q-.06-.83-.06-1.68a23.2,23.2,0,0,1,46.39,0q0,.71,0,1.41l-4.61,83.91a17.7,17.7,0,0,1-35.34.37l-6.34-83.9v-.11" transform="translate(141.4 -41.88)"/><path class="cls-6" d="M864.2,732.89l-15.74-5.71h0a12.16,12.16,0,0,0-17.32,11v15.12h47.68a22.21,22.21,0,0,0-14.62-20.44" transform="translate(141.4 -41.88)"/><path class="cls-6" d="M861.83,669.52l0-.25c0-.38,0-.75,0-1.14a17.7,17.7,0,0,0-35.39,0c0,.26,0,.51,0,.77v.23l4.63,69.62a12.18,12.18,0,0,0,24.3.43v0s0,0,0,0Z" transform="translate(141.4 -41.88)"/><path class="cls-6" d="M868.19,585.26c0-.55.06-1.11.06-1.68a23.2,23.2,0,0,0-46.39,0q0,.71,0,1.41l4.61,83.91a17.7,17.7,0,0,0,35.34.37l6.34-83.9v-.11" transform="translate(141.4 -41.88)"/><path class="cls-6" d="M868.25,583.58h0a37.11,37.11,0,0,0-74.22,0h74.22Z" transform="translate(141.4 -41.88)"/><path class="cls-6" d="M681.58,534.7c.72-2.54,6.87-8.12,11.69-6.94l51.38,12,.29.07a11.1,11.1,0,0,1,7.72,13.84,11.45,11.45,0,0,1-13.89,8l-.28-.08L688,546.5a9.52,9.52,0,0,1-6.4-11.8" transform="translate(141.4 -41.88)"/><path class="cls-6" d="M733,557.1A11.46,11.46,0,0,1,736,541.56l48.71-36.92c11.15-6,14.58-.65,18.44,5.27a13.09,13.09,0,0,1-3.78,17.95c-.11.07-.21.14-.51,1.19l-50.82,32.24A12.22,12.22,0,0,1,733,557.1" transform="translate(141.4 -41.88)"/><path class="cls-6" d="M892.11,654.59c9.86-4.3,14.61-14.57,10.72-23.16l-3.62-7.86-.11-.23c-2.22-4.53-8.29-6.34-13.56-4s-7.74,7.83-5.52,12.36l.11.22Z" transform="translate(141.4 -41.88)"/><path class="cls-6" d="M890.78,636.1c5.59-1,9.56-5.72,9-10.63l-6.59-56.34c0-.09,0-.19,0-.28-.86-5.81-6.92-9.57-13.54-8.39s-11.28,6.83-10.42,12.65l0,.28,10,55.73c.85,4.86,6,8,11.57,7" transform="translate(141.4 -41.88)"/><path class="cls-6" d="M883.62,583.35c6.09-1.91,10.19-8.19,9.29-14.15h0l-8.82-58.4c0-.12,0-.25-.06-.37-1.24-6.89-8-10.69-15-8.47s-11.8,9.59-10.56,16.49l.07.37,12,57.4h0c1.22,5.85,7,9,13.11,7.13" transform="translate(141.4 -41.88)"/><path class="cls-6" d="M798.65,461.09a32.49,32.49,0,1,1,32.49,32.49,32.49,32.49,0,0,1-32.49-32.49" transform="translate(141.4 -41.88)"/><path class="cls-6" d="M798.65,461.09A32.49,32.49,0,0,1,830,428.63a26.13,26.13,0,0,0-45.34,17.72c0,.5,0,1,0,1.48s0,.69,0,1c0,9.5,8.29,33.89-10.82,38.43,15.72,10.15,29.78,2.57,31.89-6a32.34,32.34,0,0,1-7-20.19" transform="translate(141.4 -41.88)"/><path class="cls-5" d="M836.95,410.46c-.22-.19-14,31.38-12.88,31s44.63-22.6,44.63-22.6S852.27,454,852.27,453.42s-15.13-42.8-15.32-43" transform="translate(141.4 -41.88)"/><path class="cls-2" d="M802.34,529.05h60.21L877,646.94c-17.16,4.46-70.89,5.3-89.07,0Z" transform="translate(141.4 -41.88)"/><circle class="cls-7" cx="482.9" cy="441.85" r="33.09"/><path class="cls-5" d="M307.18,482a34.33,34.33,0,0,1,68.65,0" transform="translate(141.4 -41.88)"/><line class="cls-8" x1="448.58" y1="440.16" x2="539.96" y2="440.16"/></g></g></svg>