<?xml version="1.0" encoding="utf-8"?>
<!-- Generator: Adobe Illustrator 21.0.0, SVG Export Plug-In . SVG Version: 6.00 Build 0)  -->
<!DOCTYPE svg PUBLIC "-//W3C//DTD SVG 1.1//EN" "http://www.w3.org/Graphics/SVG/1.1/DTD/svg11.dtd">
<svg version="1.1" id="Layer_1" xmlns="http://www.w3.org/2000/svg" xmlns:xlink="http://www.w3.org/1999/xlink" x="0px" y="0px"
	 width="60px" height="60px" viewBox="0 0 60 60" enable-background="new 0 0 60 60" xml:space="preserve">
<g>
	<path d="M30,51.9c0,0-15-22.6-15-29.7c0-7.8,6.7-14.1,15-14.1c8.3,0,15,6.3,15,14.1C45,29.2,30,51.9,30,51.9z M30,12.1
		c-5.9,0-10.7,4.5-10.7,10.1c0,3.9,6,14.6,10.7,22.1c4.8-7.6,10.7-18.1,10.7-22.1C40.7,16.6,35.9,12.1,30,12.1z"/>
	<ellipse cx="30" cy="21.7" rx="4.1" ry="3.8"/>
</g>
</svg>
