<?xml version="1.0" encoding="utf-8"?>
<!-- Generator: Adobe Illustrator 21.0.0, SVG Export Plug-In . SVG Version: 6.00 Build 0)  -->
<!DOCTYPE svg PUBLIC "-//W3C//DTD SVG 1.1//EN" "http://www.w3.org/Graphics/SVG/1.1/DTD/svg11.dtd">
<svg version="1.1" id="Layer_1" xmlns="http://www.w3.org/2000/svg" xmlns:xlink="http://www.w3.org/1999/xlink" x="0px" y="0px"
	 width="60px" height="60px" viewBox="0 0 60 60" enable-background="new 0 0 60 60" xml:space="preserve">
<path d="M49.9,22.4c0.5-0.8,0.7-1.8,0.7-2.8c0-3-2.3-5.5-5.2-5.9c0.1-0.4,0.1-0.7,0.1-1.1c0-3.3-2.7-6-6-6c-3.3,0-6,2.7-6,6
	c0,0.4,0,0.7,0.1,1.1c-2.9,0.4-5.2,2.9-5.2,5.9c0,1,0.3,2,0.7,2.8c-1.3,0.7-2.4,1.9-3.1,3.3h-3.6v-6h-9v6h-4v6h-3v21.9h23V34.8
	c0.9,0.4,1.9,0.7,3,0.7c2,0,3.7-0.8,5-2.1v20h4v-20c1.3,1.3,3,2.1,5,2.1c3.9,0,7-3.1,7-7C53.5,25.9,52,23.6,49.9,22.4z M16.5,47.6
	h-4v-6h4V47.6z M16.5,38.6h-4v-6h4V38.6z M16.5,25.6h3v4h-3V25.6z M23.5,47.6h-4v-6h4V47.6z M23.5,38.6h-4v-6h4V38.6z"/>
</svg>
